<?xml version="1.0" standalone="no"?>
<!DOCTYPE svg PUBLIC "-//W3C//DTD SVG 20010904//EN"
 "http://www.w3.org/TR/2001/REC-SVG-20010904/DTD/svg10.dtd">
<svg version="1.0" xmlns="http://www.w3.org/2000/svg"
 width="895.000000pt" height="895.000000pt" viewBox="0 0 895.000000 895.000000"
 preserveAspectRatio="xMidYMid meet">
<metadata>
Created by potrace 1.11, written by Peter Selinger 2001-2013
</metadata>
<g transform="translate(0.000000,895.000000) scale(0.100000,-0.100000)"
fill="#000000" stroke="none">
<path d="M4229 8916 c-2 -2 -49 -7 -104 -11 -55 -4 -113 -8 -130 -11 -16 -2
-52 -6 -80 -9 -27 -3 -61 -8 -75 -10 -14 -2 -54 -9 -90 -14 -359 -57 -755
-176 -1098 -332 -108 -49 -293 -143 -339 -172 -24 -15 -45 -27 -48 -27 -13 0
-248 -150 -365 -234 -226 -161 -376 -290 -585 -500 -77 -78 -151 -155 -165
-171 -14 -17 -50 -60 -80 -95 -31 -36 -69 -83 -85 -105 -16 -22 -32 -42 -35
-45 -15 -11 -122 -163 -202 -285 -302 -462 -522 -1001 -634 -1550 -10 -48 -24
-134 -30 -180 -3 -27 -8 -52 -9 -55 -2 -3 -6 -37 -10 -75 -4 -39 -9 -78 -10
-87 -20 -104 -27 -633 -12 -823 7 -89 13 -138 33 -290 38 -287 160 -747 259
-980 7 -16 23 -55 35 -85 149 -363 380 -754 634 -1070 201 -251 456 -504 717
-713 274 -219 654 -447 979 -587 41 -18 93 -40 115 -50 54 -23 251 -92 355
-124 47 -14 99 -30 115 -35 41 -13 272 -68 315 -76 118 -20 283 -46 330 -50
30 -3 64 -7 75 -10 124 -26 782 -26 935 -1 14 3 50 7 80 11 103 11 135 16 220
31 47 9 96 18 110 21 14 2 54 11 90 19 36 9 76 18 90 20 85 16 391 112 560
177 152 58 426 188 545 258 17 10 53 30 80 45 121 64 563 375 605 424 3 3 34
30 70 60 124 105 372 357 485 494 22 26 45 53 51 59 37 41 191 254 269 372
227 347 405 723 528 1120 45 144 111 420 131 545 3 19 8 46 10 59 3 13 8 49
12 80 3 31 8 63 9 71 2 8 6 51 10 95 4 44 9 89 12 100 8 38 11 551 3 655 -9
119 -21 247 -25 272 -2 9 -6 38 -10 65 -34 247 -83 460 -170 733 -20 63 -40
124 -44 135 -5 11 -24 58 -41 105 -178 465 -453 921 -799 1320 -133 154 -393
403 -571 546 -347 280 -806 541 -1210 689 -41 15 -84 31 -95 36 -138 58 -567
166 -770 194 -22 3 -51 7 -65 10 -14 2 -45 6 -70 9 -25 3 -72 8 -105 12 -33 4
-76 8 -95 11 -48 5 -606 14 -611 9z"/>
</g>
</svg>
